<?xml version="1.0" encoding="UTF-8"?>
<svg width="1024" height="1024" viewBox="0 0 1024 1024" fill="none" xmlns="http://www.w3.org/2000/svg">
  <defs>
    <!-- Violet tile gradient -->
    <linearGradient id="tile" x1="140" y1="120" x2="900" y2="920" gradientUnits="userSpaceOnUse">
      <stop offset="0" stop-color="#b661ff"/>
      <stop offset="0.5" stop-color="#8a2ef0"/>
      <stop offset="1" stop-color="#5a12b8"/>
    </linearGradient>

    <!-- Top sheen (glass highlight) -->
    <linearGradient id="sheen" x1="512" y1="120" x2="512" y2="620" gradientUnits="userSpaceOnUse">
      <stop offset="0" stop-color="#ffffff" stop-opacity="0.30"/>
      <stop offset="1" stop-color="#ffffff" stop-opacity="0"/>
    </linearGradient>

    <!-- Smooth bottom shade (no hard seam) -->
    <linearGradient id="bottomShade" x1="512" y1="500" x2="512" y2="940" gradientUnits="userSpaceOnUse">
      <stop offset="0" stop-color="#3a0a78" stop-opacity="0"/>
      <stop offset="1" stop-color="#3a0a78" stop-opacity="0.30"/>
    </linearGradient>

    <!-- Belly gradient -->
    <linearGradient id="belly" x1="512" y1="440" x2="512" y2="820" gradientUnits="userSpaceOnUse">
      <stop offset="0" stop-color="#ffffff"/>
      <stop offset="1" stop-color="#e9e2f5"/>
    </linearGradient>

    <!-- Body gradient (near-black with cool sheen) -->
    <linearGradient id="body" x1="300" y1="260" x2="720" y2="880" gradientUnits="userSpaceOnUse">
      <stop offset="0" stop-color="#3a2f4a"/>
      <stop offset="0.45" stop-color="#1b1622"/>
      <stop offset="1" stop-color="#0c0910"/>
    </linearGradient>

    <!-- Beak / feet -->
    <linearGradient id="beak" x1="512" y1="470" x2="512" y2="560" gradientUnits="userSpaceOnUse">
      <stop offset="0" stop-color="#ffb02e"/>
      <stop offset="1" stop-color="#f08a12"/>
    </linearGradient>
    <linearGradient id="feet" x1="512" y1="800" x2="512" y2="900" gradientUnits="userSpaceOnUse">
      <stop offset="0" stop-color="#ffb02e"/>
      <stop offset="1" stop-color="#e87f0e"/>
    </linearGradient>

    <!-- Bandana -->
    <linearGradient id="scarf" x1="360" y1="430" x2="660" y2="520" gradientUnits="userSpaceOnUse">
      <stop offset="0" stop-color="#ff5a4d"/>
      <stop offset="1" stop-color="#d81f2a"/>
    </linearGradient>

    <!-- Backpack strap -->
    <linearGradient id="strap" x1="420" y1="470" x2="600" y2="820" gradientUnits="userSpaceOnUse">
      <stop offset="0" stop-color="#a98c5a"/>
      <stop offset="1" stop-color="#7c6438"/>
    </linearGradient>

    <!-- Army 'pot' helmet -->
    <linearGradient id="helmetDome" x1="512" y1="222" x2="512" y2="376" gradientUnits="userSpaceOnUse">
      <stop offset="0" stop-color="#7c8a46"/>
      <stop offset="0.55" stop-color="#5c6a30"/>
      <stop offset="1" stop-color="#3e4a20"/>
    </linearGradient>
    <linearGradient id="helmetBrim" x1="512" y1="330" x2="512" y2="378" gradientUnits="userSpaceOnUse">
      <stop offset="0" stop-color="#4c5826"/>
      <stop offset="1" stop-color="#2f381a"/>
    </linearGradient>

    <!-- Hunting rifle (drawn in the rotated group's local space) -->
    <linearGradient id="gunWood" x1="0" y1="-26" x2="0" y2="26" gradientUnits="userSpaceOnUse">
      <stop offset="0" stop-color="#a06a33"/>
      <stop offset="1" stop-color="#5a3614"/>
    </linearGradient>
    <linearGradient id="gunMetal" x1="0" y1="-10" x2="0" y2="10" gradientUnits="userSpaceOnUse">
      <stop offset="0" stop-color="#585863"/>
      <stop offset="1" stop-color="#212127"/>
    </linearGradient>

    <!-- Soft drop shadow for the whole tile -->
    <filter id="tileShadow" x="-20%" y="-20%" width="140%" height="140%">
      <feDropShadow dx="0" dy="18" stdDeviation="26" flood-color="#2a0a55" flood-opacity="0.45"/>
    </filter>

    <!-- Glow behind penguin -->
    <filter id="glow" x="-40%" y="-40%" width="180%" height="180%">
      <feGaussianBlur stdDeviation="26" result="b"/>
      <feColorMatrix in="b" type="matrix"
        values="0 0 0 0 0.05  0 0 0 0 0.0  0 0 0 0 0.12  0 0 0 0.75 0"/>
    </filter>

    <clipPath id="tileClip">
      <rect x="72" y="60" width="880" height="880" rx="196" ry="196"/>
    </clipPath>
  </defs>

  <!-- Tile -->
  <g filter="url(#tileShadow)">
    <rect x="72" y="60" width="880" height="880" rx="196" ry="196" fill="url(#tile)"/>
  </g>

  <g clip-path="url(#tileClip)">
    <!-- Glass sheen -->
    <rect x="72" y="60" width="880" height="560" fill="url(#sheen)"/>
    <!-- Bottom inner shade -->
    <rect x="72" y="60" width="880" height="880" fill="url(#bottomShade)"/>

    <!-- Soft glow disc behind penguin -->
    <ellipse cx="512" cy="560" rx="240" ry="300" fill="#1a0640" filter="url(#glow)"/>

    <!-- ===================== PENGUIN ===================== -->
    <g>
      <!-- Feet -->
      <path d="M406 806 C 388 862, 356 884, 372 900 C 388 912, 470 906, 486 888 C 494 862, 470 812, 406 806 Z" fill="url(#feet)"/>
      <path d="M618 806 C 636 862, 668 884, 652 900 C 636 912, 554 906, 538 888 C 530 862, 554 812, 618 806 Z" fill="url(#feet)"/>

      <!-- Body -->
      <path d="M512 246
               C 372 246, 300 356, 300 512
               C 300 720, 372 872, 512 872
               C 652 872, 724 720, 724 512
               C 724 356, 652 246, 512 246 Z" fill="url(#body)"/>

      <!-- Belly -->
      <path d="M512 402
               C 430 402, 392 500, 392 622
               C 392 748, 448 826, 512 826
               C 576 826, 632 748, 632 622
               C 632 500, 594 402, 512 402 Z" fill="url(#belly)"/>

      <!-- Eyes -->
      <ellipse cx="466" cy="430" rx="42" ry="52" fill="#ffffff"/>
      <ellipse cx="558" cy="430" rx="42" ry="52" fill="#ffffff"/>
      <circle cx="474" cy="440" r="20" fill="#0c0910"/>
      <circle cx="550" cy="440" r="20" fill="#0c0910"/>
      <circle cx="481" cy="433" r="6" fill="#ffffff"/>
      <circle cx="557" cy="433" r="6" fill="#ffffff"/>

      <!-- Beak -->
      <path d="M512 452 C 480 452, 462 476, 470 500 C 478 520, 546 520, 554 500 C 562 476, 544 452, 512 452 Z" fill="url(#beak)"/>
      <path d="M470 500 C 486 516, 538 516, 554 500 C 546 512, 478 512, 470 500 Z" fill="#d8760c"/>

      <!-- Bandana across the neck -->
      <path d="M398 466 C 452 500, 572 500, 626 466 C 636 490, 630 512, 612 524 C 556 552, 468 552, 412 524 C 394 512, 388 490, 398 466 Z" fill="url(#scarf)"/>
      <!-- knot -->
      <path d="M612 486 C 646 486, 668 512, 660 540 C 640 536, 618 520, 610 500 Z" fill="#b81824"/>
      <path d="M628 520 C 660 520, 676 556, 668 582 L 636 566 C 624 548, 620 534, 628 520 Z" fill="#e23340"/>

      <!-- ===== Hunting rifle held across the body ===== -->
      <g transform="translate(520 600) rotate(-32)">
        <!-- wooden butt stock -->
        <path d="M -188 -26 C -198 -22, -198 22, -188 26 L -150 22 C -112 18, -92 12, -78 8 L -78 -12 C -92 -16, -112 -22, -150 -26 Z" fill="url(#gunWood)"/>
        <!-- wooden fore-end -->
        <rect x="-34" y="-11" width="104" height="22" rx="6" fill="url(#gunWood)"/>
        <!-- receiver -->
        <rect x="-82" y="-13" width="54" height="26" rx="4" fill="url(#gunMetal)"/>
        <!-- barrel -->
        <rect x="60" y="-6" width="150" height="11" rx="5" fill="url(#gunMetal)"/>
        <!-- muzzle -->
        <rect x="204" y="-7" width="11" height="13" rx="2" fill="#1a1a20"/>
        <!-- trigger guard + trigger -->
        <path d="M -64 13 C -66 31, -44 31, -46 13" fill="none" stroke="url(#gunMetal)" stroke-width="5"/>
        <path d="M -55 14 L -55 25" stroke="#20202a" stroke-width="4" stroke-linecap="round"/>
        <!-- bolt handle -->
        <path d="M -38 -12 L -26 -28" stroke="url(#gunMetal)" stroke-width="6" stroke-linecap="round"/>
        <circle cx="-24" cy="-30" r="7" fill="url(#gunMetal)"/>
        <!-- scope -->
        <rect x="-58" y="-35" width="66" height="16" rx="8" fill="#1e1e24"/>
        <rect x="-50" y="-19" width="7" height="8" fill="#15151a"/>
        <rect x="-2" y="-19" width="7" height="8" fill="#15151a"/>
        <circle cx="6" cy="-27" r="5.5" fill="#33506a"/>
      </g>

      <!-- Forward flippers gripping the rifle (drawn over it so they read as 'holding') -->
      <path d="M 690 480 C 724 520, 690 560, 616 574 C 588 580, 566 566, 574 544 C 610 520, 660 502, 676 482 C 681 476, 686 476, 690 480 Z" fill="url(#body)"/>
      <path d="M 336 484 C 300 528, 336 592, 468 640 C 496 650, 512 630, 498 608 C 452 574, 392 522, 372 486 C 362 476, 346 476, 336 484 Z" fill="url(#body)"/>

      <!-- ===== Army 'pot' helmet ===== -->
      <g>
        <!-- brim -->
        <path d="M 330 346 C 330 334, 352 328, 386 330 C 430 333, 594 333, 638 330 C 672 328, 694 334, 694 346 C 694 364, 646 376, 512 376 C 378 376, 330 364, 330 346 Z" fill="url(#helmetBrim)"/>
        <!-- dome -->
        <path d="M 360 348 C 356 266, 420 222, 512 222 C 604 222, 668 266, 664 348 C 620 336, 404 336, 360 348 Z" fill="url(#helmetDome)"/>
        <!-- dome highlight -->
        <path d="M 402 286 C 430 254, 500 244, 540 254 C 512 262, 452 278, 424 308 C 410 302, 402 294, 402 286 Z" fill="#ffffff" fill-opacity="0.14"/>
        <!-- rim seam -->
        <path d="M 372 342 C 430 332, 594 332, 652 342" fill="none" stroke="#2c331a" stroke-opacity="0.5" stroke-width="4"/>
      </g>
    </g>
  </g>

  <!-- Inner bevel highlight -->
  <rect x="74.5" y="62.5" width="875" height="875" rx="193.5" ry="193.5" fill="none" stroke="#ffffff" stroke-opacity="0.28" stroke-width="3"/>
  <rect x="76" y="64" width="872" height="872" rx="192" ry="192" fill="none" stroke="#2a0a55" stroke-opacity="0.25" stroke-width="2"/>
</svg>
